<svg xmlns="http://www.w3.org/2000/svg" xmlns:xlink="http://www.w3.org/1999/xlink" width="500" zoomAndPan="magnify" viewBox="0 0 375 374.999991" height="500" preserveAspectRatio="xMidYMid meet" version="1.0"><defs><clipPath id="2fabdb352b"><path d="M 135 92.578125 L 167 92.578125 L 167 194 L 135 194 Z M 135 92.578125 " clip-rule="nonzero"/></clipPath><clipPath id="a009856fc7"><path d="M 273.699219 227.109375 L 374.59375 227.109375 L 374.59375 258.921875 L 273.699219 258.921875 Z M 273.699219 227.109375 " clip-rule="nonzero"/></clipPath><clipPath id="fee3436c8f"><path d="M 208 92.578125 L 240 92.578125 L 240 194 L 208 194 Z M 208 92.578125 " clip-rule="nonzero"/></clipPath><clipPath id="f09d893ef9"><path d="M 19.207031 277.394531 L 73.59375 277.394531 L 73.59375 282.433594 L 19.207031 282.433594 Z M 19.207031 277.394531 " clip-rule="nonzero"/></clipPath><clipPath id="82a92127d2"><path d="M 302 276.367188 L 356 276.367188 L 356 282 L 302 282 Z M 302 276.367188 " clip-rule="nonzero"/></clipPath><clipPath id="6b616c82bc"><path d="M 108.585938 205.539062 L 266.085938 205.539062 L 266.085938 282.414062 L 108.585938 282.414062 Z M 108.585938 205.539062 " clip-rule="nonzero"/></clipPath></defs><g clip-path="url(#2fabdb352b)"><path fill="#fffff0" d="M 137.351562 92.9375 C 136.050781 93.289062 135.222656 94.648438 135.574219 95.953125 L 161.414062 191.746094 C 161.761719 193.046875 163.097656 193.542969 164.394531 193.195312 L 164.429688 193.183594 C 165.734375 192.832031 166.636719 191.730469 166.28125 190.433594 L 140.449219 94.636719 C 140.09375 93.335938 138.691406 92.578125 137.351562 92.9375 " fill-opacity="1" fill-rule="nonzero"/></g><path fill="#fffff0" d="M 54.210938 143.125 C 53.292969 142.207031 51.730469 142.148438 50.730469 143.15625 C 49.773438 144.109375 49.777344 145.660156 50.734375 146.617188 L 121.007812 216.652344 C 121.628906 217.269531 122.535156 217.511719 123.375 217.28125 C 123.785156 217.171875 124.164062 216.953125 124.492188 216.621094 C 125.445312 215.667969 125.445312 214.113281 124.488281 213.164062 L 54.210938 143.125 " fill-opacity="1" fill-rule="nonzero"/><path fill="#fffff0" d="M 2.550781 232.945312 L 98.429688 258.46875 C 98.847656 258.578125 99.285156 258.578125 99.695312 258.46875 C 100.539062 258.242188 101.199219 257.574219 101.433594 256.699219 C 101.601562 256.066406 101.511719 255.40625 101.183594 254.839844 C 100.859375 254.28125 100.332031 253.875 99.695312 253.707031 L 3.820312 228.183594 C 3.40625 228.078125 2.96875 228.078125 2.554688 228.1875 C 1.710938 228.414062 1.050781 229.078125 0.820312 229.957031 C 0.46875 231.257812 1.246094 232.601562 2.550781 232.945312 " fill-opacity="1" fill-rule="nonzero"/><g clip-path="url(#a009856fc7)"><path fill="#fffff0" d="M 371.488281 227.515625 L 275.691406 253.355469 C 274.394531 253.707031 273.632812 255.109375 273.992188 256.449219 C 274.34375 257.746094 275.703125 258.582031 277.007812 258.230469 L 372.800781 232.390625 C 374.105469 232.042969 374.863281 230.636719 374.5 229.300781 C 374.148438 227.996094 372.789062 227.167969 371.488281 227.515625 " fill-opacity="1" fill-rule="nonzero"/></g><path fill="#fffff0" d="M 250.074219 214.683594 C 250.074219 215.335938 250.328125 215.949219 250.816406 216.4375 C 251.4375 217.054688 252.34375 217.292969 253.183594 217.070312 C 253.59375 216.957031 253.972656 216.738281 254.273438 216.433594 L 324.316406 146.160156 C 325.269531 145.203125 325.265625 143.652344 324.28125 142.675781 C 323.664062 142.058594 322.757812 141.816406 321.917969 142.046875 C 321.503906 142.15625 321.128906 142.375 320.828125 142.679688 L 250.785156 212.953125 C 250.324219 213.417969 250.070312 214.03125 250.074219 214.683594 " fill-opacity="1" fill-rule="nonzero"/><g clip-path="url(#fee3436c8f)"><path fill="#fffff0" d="M 210.742188 193.378906 C 211.152344 193.488281 211.589844 193.488281 212.003906 193.375 C 212.847656 193.152344 213.507812 192.484375 213.730469 191.644531 L 239.253906 95.761719 C 239.597656 94.460938 238.820312 93.117188 237.480469 92.761719 C 237.070312 92.652344 236.632812 92.652344 236.21875 92.765625 C 235.378906 92.988281 234.714844 93.65625 234.488281 94.496094 L 208.96875 190.375 C 208.625 191.679688 209.402344 193.023438 210.742188 193.378906 " fill-opacity="1" fill-rule="nonzero"/></g><path fill="#fffff0" d="M 189.214844 112.257812 C 188.753906 111.800781 188.136719 111.542969 187.449219 111.550781 C 187.234375 111.550781 187.019531 111.578125 186.816406 111.632812 C 185.75 111.917969 185.007812 112.890625 185.007812 114 L 185.085938 162.636719 C 185.089844 163.988281 186.1875 165.082031 187.574219 165.078125 C 187.789062 165.078125 188.003906 165.050781 188.210938 164.996094 C 189.277344 164.707031 190.015625 163.734375 190.015625 162.628906 L 189.933594 113.988281 C 189.933594 113.335938 189.679688 112.722656 189.214844 112.257812 " fill-opacity="1" fill-rule="nonzero"/><path fill="#fffff0" d="M 105.304688 133.957031 C 104.671875 133.789062 104.015625 133.875 103.417969 134.226562 C 103.234375 134.332031 103.058594 134.460938 102.90625 134.613281 C 102.128906 135.394531 101.972656 136.609375 102.527344 137.5625 L 126.917969 179.648438 C 127.59375 180.816406 129.097656 181.21875 130.292969 180.519531 C 130.480469 180.410156 130.648438 180.28125 130.800781 180.128906 C 131.578125 179.347656 131.738281 178.132812 131.179688 177.179688 L 106.792969 135.09375 C 106.464844 134.53125 105.933594 134.125 105.304688 133.957031 " fill-opacity="1" fill-rule="nonzero"/><path fill="#fffff0" d="M 43.480469 194.707031 C 42.851562 194.875 42.324219 195.277344 41.984375 195.875 C 41.875 196.066406 41.789062 196.261719 41.738281 196.46875 C 41.453125 197.535156 41.921875 198.667969 42.878906 199.214844 L 85.046875 223.46875 C 86.214844 224.140625 87.714844 223.734375 88.40625 222.53125 C 88.507812 222.347656 88.59375 222.148438 88.648438 221.945312 C 88.933594 220.878906 88.460938 219.746094 87.503906 219.195312 L 45.335938 194.945312 C 44.773438 194.621094 44.113281 194.535156 43.480469 194.707031 " fill-opacity="1" fill-rule="nonzero"/><g clip-path="url(#f09d893ef9)"><path fill="#fffff0" d="M 20.316406 278.222656 C 19.855469 278.683594 19.601562 279.300781 19.601562 279.992188 C 19.601562 280.203125 19.632812 280.414062 19.6875 280.625 C 19.976562 281.691406 20.945312 282.433594 22.050781 282.433594 L 70.691406 282.347656 C 72.042969 282.347656 73.136719 281.25 73.132812 279.863281 C 73.132812 279.648438 73.105469 279.433594 73.050781 279.230469 C 72.765625 278.164062 71.789062 277.421875 70.683594 277.421875 L 22.042969 277.5 C 21.390625 277.503906 20.777344 277.757812 20.316406 278.222656 " fill-opacity="1" fill-rule="nonzero"/></g><g clip-path="url(#82a92127d2)"><path fill="#fffff0" d="M 355.175781 281.160156 C 355.636719 280.695312 355.894531 280.082031 355.890625 279.394531 C 355.890625 279.175781 355.863281 278.964844 355.804688 278.761719 C 355.519531 277.695312 354.546875 276.949219 353.441406 276.953125 L 304.800781 277.03125 C 303.449219 277.035156 302.355469 278.136719 302.359375 279.519531 C 302.359375 279.734375 302.386719 279.945312 302.445312 280.15625 C 302.730469 281.21875 303.703125 281.964844 304.808594 281.960938 L 353.449219 281.878906 C 354.101562 281.878906 354.714844 281.621094 355.175781 281.160156 " fill-opacity="1" fill-rule="nonzero"/></g><path fill="#fffff0" d="M 333.484375 197.246094 C 333.652344 196.617188 333.5625 195.957031 333.214844 195.363281 C 333.105469 195.175781 332.976562 195.007812 332.824219 194.855469 C 332.042969 194.078125 330.828125 193.917969 329.871094 194.472656 L 287.789062 218.859375 C 286.621094 219.539062 286.222656 221.039062 286.917969 222.234375 C 287.027344 222.425781 287.15625 222.59375 287.308594 222.746094 C 288.089844 223.523438 289.304688 223.679688 290.261719 223.125 L 332.34375 198.734375 C 332.910156 198.410156 333.3125 197.878906 333.484375 197.246094 " fill-opacity="1" fill-rule="nonzero"/><path fill="#fffff0" d="M 272.734375 135.425781 C 272.566406 134.792969 272.160156 134.269531 271.558594 133.925781 C 271.375 133.820312 271.175781 133.734375 270.96875 133.679688 C 269.902344 133.398438 268.773438 133.867188 268.21875 134.828125 L 243.972656 176.992188 C 243.296875 178.164062 243.703125 179.65625 244.90625 180.347656 C 245.089844 180.457031 245.289062 180.539062 245.496094 180.589844 C 246.5625 180.875 247.691406 180.40625 248.246094 179.449219 L 272.492188 137.285156 C 272.820312 136.71875 272.90625 136.058594 272.734375 135.425781 " fill-opacity="1" fill-rule="nonzero"/><g clip-path="url(#6b616c82bc)"><path fill="#fffff0" d="M 108.933594 282.414062 C 109.679688 239.683594 144.554688 205.289062 187.503906 205.289062 C 230.40625 205.289062 265.285156 239.683594 266.027344 282.414062 Z M 108.933594 282.414062 " fill-opacity="1" fill-rule="nonzero"/></g></svg>