<?xml version="1.0" standalone="no"?>
<!DOCTYPE svg PUBLIC "-//W3C//DTD SVG 20010904//EN"
 "http://www.w3.org/TR/2001/REC-SVG-20010904/DTD/svg10.dtd">
<svg version="1.0" xmlns="http://www.w3.org/2000/svg"
 width="1000.000000pt" height="1000.000000pt" viewBox="0 0 1000.000000 1000.000000"
 preserveAspectRatio="xMidYMid meet">
<metadata>
Created by potrace 1.14, written by Peter Selinger 2001-2017
</metadata>
<g transform="translate(0.000000,1000.000000) scale(0.100000,-0.100000)"
fill="#000000" stroke="none">
<path d="M3904 6995 c-17 -27 -19 -15 36 -220 49 -181 71 -261 74 -275 2 -8
79 -292 171 -630 91 -338 168 -622 170 -630 6 -27 54 -205 59 -220 2 -8 12
-41 21 -73 17 -64 42 -83 82 -64 36 16 36 40 4 154 -17 60 -60 218 -96 353
-78 288 -84 310 -136 502 -22 81 -42 155 -44 165 -7 33 -194 727 -204 758 -5
17 -17 59 -26 95 -9 36 -23 75 -31 88 -20 30 -59 29 -80 -3z"/>
<path d="M6021 7011 c-10 -6 -85 -255 -106 -351 -3 -14 -35 -135 -71 -270 -8
-30 -35 -129 -58 -220 -24 -91 -58 -219 -76 -285 -17 -66 -34 -127 -35 -135
-2 -8 -20 -76 -41 -150 -20 -74 -38 -142 -39 -150 -2 -8 -14 -51 -26 -95 -29
-108 -88 -328 -104 -392 -12 -49 -12 -52 10 -73 21 -20 26 -21 51 -8 32 15 18
-30 158 498 42 157 99 371 127 475 27 105 62 233 75 285 25 93 121 451 151
560 8 30 16 64 19 75 2 11 15 61 28 110 22 80 23 92 10 113 -15 22 -48 29 -73
13z"/>
<path d="M4965 6607 c-17 -13 -18 -41 -17 -558 2 -499 3 -545 19 -556 23 -18
58 -16 74 3 10 12 12 119 11 522 -1 279 -1 521 -2 539 0 54 -44 79 -85 50z"/>
<path d="M3222 6142 c-13 -2 -28 -15 -35 -29 -13 -28 -13 -26 128 -268 48 -82
97 -168 110 -190 114 -201 280 -483 293 -497 30 -34 96 1 84 45 -3 12 -89 166
-192 342 -102 176 -219 377 -259 447 -80 139 -95 156 -129 150z"/>
<path d="M6738 6138 c-14 -11 -52 -75 -153 -253 -13 -22 -105 -182 -204 -354
-188 -325 -198 -349 -156 -377 28 -19 61 0 90 51 12 22 85 148 160 280 76 132
185 321 242 420 56 99 103 188 103 197 0 39 -50 61 -82 36z"/>
<path d="M7101 5209 c-418 -418 -761 -769 -764 -779 -3 -10 2 -28 10 -39 36
-53 23 -65 825 742 782 787 783 788 746 825 -35 35 -44 26 -817 -749z"/>
<path d="M2082 5948 c-38 -38 -39 -36 751 -824 495 -495 769 -761 782 -761 27
0 55 26 55 52 0 15 -222 243 -754 774 -415 415 -760 758 -768 762 -19 12 -52
11 -66 -3z"/>
<path d="M8035 4846 c-16 -8 -100 -54 -185 -103 -400 -231 -716 -415 -723
-422 -25 -24 1 -91 35 -91 12 0 136 70 671 381 67 39 138 80 157 91 115 65
132 81 124 113 -6 19 -31 45 -43 45 -3 -1 -19 -7 -36 -14z"/>
<path d="M1905 4830 c-20 -22 -19 -53 3 -72 9 -8 103 -64 207 -123 105 -60
287 -165 405 -234 308 -178 319 -184 344 -167 12 7 22 27 24 44 2 24 -3 34
-26 51 -17 12 -33 21 -36 21 -3 0 -60 32 -128 72 -68 39 -143 82 -168 96 -25
14 -164 93 -310 177 -146 84 -273 152 -282 152 -10 0 -25 -8 -33 -17z"/>
<path d="M4865 4608 c-143 -7 -158 -9 -293 -44 -380 -96 -734 -347 -959 -679
-46 -68 -132 -222 -152 -275 -8 -19 -20 -48 -27 -65 -53 -120 -103 -367 -108
-530 l-1 -30 1674 -3 1674 -2 -6 102 c-7 123 -11 144 -44 273 -105 409 -350
753 -708 992 -62 41 -232 133 -246 133 -5 0 -32 11 -61 24 -61 27 -167 59
-253 77 -33 7 -67 14 -75 16 -66 14 -259 19 -415 11z"/>
<path d="M8800 4114 c-63 -18 -126 -35 -140 -38 -14 -3 -182 -48 -375 -100
-192 -53 -476 -130 -630 -172 -154 -41 -336 -91 -405 -109 -69 -19 -183 -50
-255 -69 -75 -20 -135 -42 -142 -52 -22 -30 6 -84 44 -84 7 0 162 41 345 90
183 50 340 92 348 94 18 5 466 125 595 161 50 13 191 52 315 85 124 33 277 75
340 92 123 33 150 48 150 84 0 24 -34 55 -60 53 -8 0 -67 -16 -130 -35z"/>
<path d="M1035 4116 c-24 -24 -25 -56 -1 -75 6 -5 63 -23 126 -40 63 -16 151
-40 195 -51 44 -12 88 -24 98 -26 41 -10 55 -13 112 -29 77 -21 246 -66 265
-70 8 -2 65 -18 125 -35 61 -16 121 -32 135 -35 14 -3 248 -65 520 -139 528
-142 542 -144 553 -90 2 13 -1 31 -7 40 -10 13 -160 62 -241 78 -11 3 -47 12
-80 21 -33 9 -134 36 -225 60 -214 56 -329 87 -525 139 -88 24 -266 72 -395
106 -529 140 -606 161 -618 165 -7 3 -24 -6 -37 -19z"/>
<path d="M7473 3082 c-20 -12 -25 -55 -9 -77 14 -19 27 -20 551 -20 570 0 575
0 575 46 0 11 -5 29 -10 40 -10 18 -27 19 -553 19 -298 0 -547 -4 -554 -8z"/>
<path d="M1436 3064 c-20 -19 -21 -58 -2 -73 9 -8 167 -11 556 -11 506 0 544
1 556 17 18 24 17 48 -2 67 -14 14 -78 16 -554 16 -476 0 -540 -2 -554 -16z"/>
</g>
</svg>
